{
    "asset" : {
        "generator" : "Khronos glTF Blender I/O v1.4.40",
        "version" : "2.0"
    },
    "scene" : 0,
    "scenes" : [
        {
            "name" : "Scene",
            "nodes" : [
                0,
                1,
                2,
                3
            ]
        }
    ],
    "nodes" : [
        {
            "name" : "Light",
            "rotation" : [
                0.16907575726509094,
                0.7558803558349609,
                -0.27217137813568115,
                0.570947527885437
            ],
            "translation" : [
                4.076245307922363,
                5.903861999511719,
                -1.0054539442062378
            ]
        },
        {
            "mesh" : 0,
            "name" : "Body",
            "scale" : [
                0.9885927438735962,
                0.6550961136817932,
                0.9885927438735962
            ]
        },
        {
            "mesh" : 1,
            "name" : "Fan",
            "rotation" : [
                0,
                -0.7024524211883545,
                0,
                -0.7117307186126709
            ],
            "scale" : [
                0.352069228887558,
                0.352069228887558,
                0.14006684720516205
            ],
            "translation" : [
                0.002017378807067871,
                0.7057999968528748,
                -0.009495064616203308
            ]
        },
        {
            "mesh" : 2,
            "name" : "Pump",
            "rotation" : [
                -0.7069931030273438,
                0.706993043422699,
                -0.012681781314313412,
                0.012681782245635986
            ],
            "scale" : [
                0.12722207605838776,
                0.2185017466545105,
                0.12722207605838776
            ],
            "translation" : [
                -0.6044012308120728,
                -0.5081045031547546,
                0
            ]
        }
    ],
    "materials" : [
        {
            "doubleSided" : true,
            "name" : "Material.001",
            "pbrMetallicRoughness" : {
                "baseColorFactor" : [
                    0.800000011920929,
                    0.800000011920929,
                    0.800000011920929,
                    1
                ],
                "metallicFactor" : 0,
                "roughnessFactor" : 0.20000000298023224
            }
        },
        {
            "doubleSided" : true,
            "name" : "Material.002",
            "pbrMetallicRoughness" : {
                "baseColorFactor" : [
                    0.800000011920929,
                    0.800000011920929,
                    0.800000011920929,
                    1
                ],
                "metallicFactor" : 0,
                "roughnessFactor" : 0.5
            }
        },
        {
            "doubleSided" : true,
            "name" : "Material.003",
            "pbrMetallicRoughness" : {
                "baseColorFactor" : [
                    0.800000011920929,
                    0.800000011920929,
                    0.800000011920929,
                    1
                ],
                "metallicFactor" : 0,
                "roughnessFactor" : 0.5
            }
        }
    ],
    "meshes" : [
        {
            "name" : "Cylinder",
            "primitives" : [
                {
                    "attributes" : {
                        "POSITION" : 0,
                        "NORMAL" : 1,
                        "TEXCOORD_0" : 2
                    },
                    "indices" : 3,
                    "material" : 0
                }
            ]
        },
        {
            "name" : "Circle.003",
            "primitives" : [
                {
                    "attributes" : {
                        "POSITION" : 4,
                        "NORMAL" : 5,
                        "TEXCOORD_0" : 6
                    },
                    "indices" : 7,
                    "material" : 1
                }
            ]
        },
        {
            "name" : "Cylinder.001",
            "primitives" : [
                {
                    "attributes" : {
                        "POSITION" : 8,
                        "NORMAL" : 9,
                        "TEXCOORD_0" : 10
                    },
                    "indices" : 11,
                    "material" : 2
                }
            ]
        }
    ],
    "accessors" : [
        {
            "bufferView" : 0,
            "componentType" : 5126,
            "count" : 288,
            "max" : [
                0.9044548273086548,
                1.03415846824646,
                1.0443733930587769
            ],
            "min" : [
                -0.9044548273086548,
                -1.03415846824646,
                -1.0443733930587769
            ],
            "type" : "VEC3"
        },
        {
            "bufferView" : 1,
            "componentType" : 5126,
            "count" : 288,
            "type" : "VEC3"
        },
        {
            "bufferView" : 2,
            "componentType" : 5126,
            "count" : 288,
            "type" : "VEC2"
        },
        {
            "bufferView" : 3,
            "componentType" : 5123,
            "count" : 432,
            "type" : "SCALAR"
        },
        {
            "bufferView" : 4,
            "componentType" : 5126,
            "count" : 768,
            "max" : [
                2.020190715789795,
                0,
                5.076874256134033
            ],
            "min" : [
                -2.020493984222412,
                -0.10814354568719864,
                -5.078235626220703
            ],
            "type" : "VEC3"
        },
        {
            "bufferView" : 5,
            "componentType" : 5126,
            "count" : 768,
            "type" : "VEC3"
        },
        {
            "bufferView" : 6,
            "componentType" : 5126,
            "count" : 768,
            "type" : "VEC2"
        },
        {
            "bufferView" : 7,
            "componentType" : 5123,
            "count" : 1488,
            "type" : "SCALAR"
        },
        {
            "bufferView" : 8,
            "componentType" : 5126,
            "count" : 2400,
            "max" : [
                1.3901441097259521,
                1.6402302980422974,
                1.6618895530700684
            ],
            "min" : [
                -1.5603129863739014,
                -2.0535573959350586,
                -1.8697696924209595
            ],
            "type" : "VEC3"
        },
        {
            "bufferView" : 9,
            "componentType" : 5126,
            "count" : 2400,
            "type" : "VEC3"
        },
        {
            "bufferView" : 10,
            "componentType" : 5126,
            "count" : 2400,
            "type" : "VEC2"
        },
        {
            "bufferView" : 11,
            "componentType" : 5123,
            "count" : 3744,
            "type" : "SCALAR"
        }
    ],
    "bufferViews" : [
        {
            "buffer" : 0,
            "byteLength" : 3456,
            "byteOffset" : 0
        },
        {
            "buffer" : 0,
            "byteLength" : 3456,
            "byteOffset" : 3456
        },
        {
            "buffer" : 0,
            "byteLength" : 2304,
            "byteOffset" : 6912
        },
        {
            "buffer" : 0,
            "byteLength" : 864,
            "byteOffset" : 9216
        },
        {
            "buffer" : 0,
            "byteLength" : 9216,
            "byteOffset" : 10080
        },
        {
            "buffer" : 0,
            "byteLength" : 9216,
            "byteOffset" : 19296
        },
        {
            "buffer" : 0,
            "byteLength" : 6144,
            "byteOffset" : 28512
        },
        {
            "buffer" : 0,
            "byteLength" : 2976,
            "byteOffset" : 34656
        },
        {
            "buffer" : 0,
            "byteLength" : 28800,
            "byteOffset" : 37632
        },
        {
            "buffer" : 0,
            "byteLength" : 28800,
            "byteOffset" : 66432
        },
        {
            "buffer" : 0,
            "byteLength" : 19200,
            "byteOffset" : 95232
        },
        {
            "buffer" : 0,
            "byteLength" : 7488,
            "byteOffset" : 114432
        }
    ],
    "buffers" : [
        {
            "byteLength" : 121920,
            "uri" : "data:application/octet-stream;base64,"
        }
    ]
}
